<svg width="32" height="32" viewBox="0 0 32 32" fill="none" xmlns="http://www.w3.org/2000/svg">
<circle cx="16" cy="16" r="15" fill="white" stroke="#3E4B59" stroke-width="2"/>
<path d="M20.7996 13.9129H19.9996V10.5738C19.9996 8.26982 18.2076 6.3999 15.9996 6.3999C13.7916 6.3999 11.9996 8.26982 11.9996 10.5738H13.5196C13.5196 9.14634 14.6316 7.98599 15.9996 7.98599C17.3676 7.98599 18.4796 9.14634 18.4796 10.5738V13.9129H11.1996C10.3196 13.9129 9.59961 14.6643 9.59961 15.5825V23.9303C9.59961 24.8486 10.3196 25.5999 11.1996 25.5999H20.7996C21.6796 25.5999 22.3996 24.8486 22.3996 23.9303V15.5825C22.3996 14.6643 21.6796 13.9129 20.7996 13.9129ZM20.7996 23.9303H11.1996V15.5825H20.7996V23.9303Z" fill="#3E4B59"/>
<ellipse cx="15.9994" cy="19.7565" rx="1.6" ry="1.66957" fill="#3E4B59"/>
</svg>
