<svg width="31" height="31" viewBox="0 0 31 31" fill="none" xmlns="http://www.w3.org/2000/svg">
<circle cx="15.5" cy="15.5" r="14.75" stroke="#E4E4E4" stroke-width="1.5"/>
<path d="M20.1498 13.4785H19.3748V10.2437C19.3748 8.01167 17.6388 6.2002 15.4998 6.2002C13.3608 6.2002 11.6248 8.01167 11.6248 10.2437H13.0973C13.0973 8.8608 14.1746 7.73672 15.4998 7.73672C16.8251 7.73672 17.9023 8.8608 17.9023 10.2437V13.4785H10.8498C9.9973 13.4785 9.2998 14.2063 9.2998 15.0958V23.1828C9.2998 24.0724 9.9973 24.8002 10.8498 24.8002H20.1498C21.0023 24.8002 21.6998 24.0724 21.6998 23.1828V15.0958C21.6998 14.2063 21.0023 13.4785 20.1498 13.4785ZM20.1498 23.1828H10.8498V15.0958H20.1498V23.1828Z" fill="#E4E4E4"/>
<ellipse cx="15.5002" cy="19.1394" rx="1.55" ry="1.61739" fill="#E4E4E4"/>
</svg>
